{"glyphs":{"0":{"ha":688,"x_min":0,"x_max":0,"o":""},"1":{"ha":688,"x_min":0,"x_max":0,"o":""},"2":{"ha":688,"x_min":0,"x_max":0,"o":""},"3":{"ha":688,"x_min":0,"x_max":0,"o":""},"4":{"ha":688,"x_min":0,"x_max":0,"o":""},"5":{"ha":688,"x_min":0,"x_max":0,"o":""},"6":{"ha":688,"x_min":0,"x_max":0,"o":""},"7":{"ha":688,"x_min":0,"x_max":0,"o":""},"8":{"ha":688,"x_min":0,"x_max":0,"o":""},"9":{"ha":688,"x_min":0,"x_max":0,"o":""}," ":{"ha":345,"x_min":0,"x_max":0,"o":""}," ":{"ha":345,"x_min":0,"x_max":0,"o":""},"!":{"ha":456,"x_min":0,"x_max":0,"o":""},"\"":{"ha":456,"x_min":0,"x_max":0,"o":""},"#":{"ha":906,"x_min":0,"x_max":0,"o":""},"$":{"ha":688,"x_min":0,"x_max":0,"o":""},"%":{"ha":1092,"x_min":0,"x_max":0,"o":""},"&":{"ha":1141,"x_min":0,"x_max":0,"o":""},"'":{"ha":235,"x_min":0,"x_max":0,"o":""},"(":{"ha":514,"x_min":0,"x_max":0,"o":""},")":{"ha":514,"x_min":0,"x_max":0,"o":""},"*":{"ha":694,"x_min":0,"x_max":0,"o":""},"+":{"ha":688,"x_min":0,"x_max":0,"o":""},",":{"ha":378,"x_min":0,"x_max":0,"o":""},"-":{"ha":454,"x_min":0,"x_max":0,"o":""},"­":{"ha":454,"x_min":0,"x_max":0,"o":""},".":{"ha":378,"x_min":0,"x_max":0,"o":""},"/":{"ha":386,"x_min":0,"x_max":0,"o":""},":":{"ha":378,"x_min":0,"x_max":0,"o":""},";":{"ha":378,"x_min":0,"x_max":0,"o":""},"<":{"ha":688,"x_min":0,"x_max":0,"o":""},"=":{"ha":688,"x_min":0,"x_max":0,"o":""},">":{"ha":688,"x_min":0,"x_max":0,"o":""},"?":{"ha":507,"x_min":0,"x_max":0,"o":""},"@":{"ha":1369,"x_min":0,"x_max":0,"o":""},"A":{"ha":1496,"x_min":47,"x_max":1450,"o":"m 361 0 l 47 0 l 564 926 l 945 926 l 1450 0 l 1139 0 l 1051 168 l 453 168 l 361 0 m 551 359 l 949 359 l 750 726 l 551 359 z "},"B":{"ha":1423,"x_min":121,"x_max":1322,"o":"m 1000 926 q 1212 873 1139 926 q 1286 688 1286 821 q 1276 588 1286 629 q 1238 524 1265 547 q 1188 492 1211 500 q 1124 472 1165 484 q 1279 415 1236 454 q 1322 267 1322 376 q 1248 56 1322 113 q 1014 0 1174 0 l 121 0 l 121 926 l 1000 926 m 1002 646 q 975 708 1002 693 q 895 724 947 724 l 403 724 l 403 562 l 889 562 q 973 577 945 562 q 1002 646 1002 593 m 1039 300 q 1015 358 1039 338 q 920 379 990 379 l 403 379 l 403 210 l 916 210 q 1001 220 964 210 q 1039 300 1039 231 z "},"C":{"ha":1388,"x_min":104,"x_max":1289,"o":"m 1289 313 q 1219 58 1289 121 q 942 -5 1149 -5 l 726 -9 l 551 -7 q 192 66 272 -7 q 113 293 113 139 l 104 488 q 171 822 104 715 q 443 928 237 928 l 707 935 q 897 932 822 935 q 1079 919 972 930 q 1232 826 1186 908 q 1278 600 1278 743 l 1004 600 q 973 685 1004 664 q 873 707 942 707 l 794 708 l 717 708 l 574 707 q 417 660 446 707 q 389 464 389 612 q 422 266 389 311 q 600 220 456 220 l 710 216 l 854 218 q 975 242 939 218 q 1011 353 1011 265 l 1287 353 l 1289 313 z "},"D":{"ha":1463,"x_min":121,"x_max":1361,"o":"m 937 926 q 1275 843 1189 926 q 1361 510 1361 760 l 1361 457 l 1361 428 l 1361 403 q 1359 311 1361 338 q 1343 203 1357 285 q 1247 61 1329 122 q 1042 0 1165 0 l 121 0 l 121 926 l 937 926 m 1076 460 l 1076 468 q 1046 651 1076 604 q 882 699 1015 699 l 403 699 l 403 227 l 878 227 q 1042 275 1008 227 q 1076 460 1076 323 z "},"E":{"ha":1242,"x_min":121,"x_max":1154,"o":"m 1154 926 l 1154 715 l 403 715 l 403 557 l 1104 557 l 1020 374 l 403 374 l 403 210 l 1154 210 l 1154 0 l 121 0 l 121 926 l 1154 926 z "},"F":{"ha":1154,"x_min":121,"x_max":1104,"o":"m 1104 926 l 1104 715 l 403 715 l 403 557 l 1104 557 l 1104 374 l 403 374 l 403 0 l 121 0 l 121 926 l 1104 926 z "},"G":{"ha":1413,"x_min":103,"x_max":1312,"o":"m 1311 522 l 1312 328 q 1253 74 1312 157 q 1023 -8 1194 -8 l 876 -9 l 708 -8 l 562 -7 q 309 15 403 -7 q 160 110 215 36 q 106 335 106 183 l 103 452 q 170 826 103 722 q 484 930 236 930 l 694 935 l 772 936 l 961 932 q 1227 869 1145 932 q 1310 625 1310 806 l 1310 608 l 1034 608 q 1024 665 1034 642 q 987 699 1014 689 q 937 710 961 708 q 867 713 913 713 l 541 714 q 414 665 440 714 q 387 501 387 616 l 387 415 q 414 273 387 319 q 489 220 440 227 q 564 212 538 214 q 631 211 590 211 l 882 210 q 994 233 953 210 q 1035 322 1035 257 l 1034 349 l 676 349 l 676 522 l 1311 522 z "},"H":{"ha":1444,"x_min":119,"x_max":1324,"o":"m 1324 926 l 1324 0 l 1040 0 l 1040 357 l 401 357 l 401 0 l 119 0 l 119 926 l 401 926 l 401 587 l 1040 587 l 1040 926 l 1324 926 z "},"I":{"ha":524,"x_min":121,"x_max":403,"o":"m 121 0 l 121 926 l 403 926 l 403 0 l 121 0 z "},"J":{"ha":1121,"x_min":46,"x_max":1000,"o":"m 1000 378 q 959 121 1000 208 q 818 16 918 35 q 643 -5 717 -3 q 503 -8 570 -8 q 231 9 319 -8 q 95 102 143 26 q 46 350 46 178 l 47 396 l 318 396 l 317 335 q 360 240 317 261 q 488 218 404 218 l 562 218 q 674 236 631 218 q 717 307 717 253 l 718 378 l 718 926 l 1000 926 l 1000 378 z "},"K":{"ha":1413,"x_min":121,"x_max":1377,"o":"m 547 578 l 929 926 l 1318 926 l 787 468 l 1377 0 l 962 0 l 547 353 l 403 353 l 403 0 l 121 0 l 121 926 l 403 926 l 403 578 l 547 578 z "},"L":{"ha":1079,"x_min":121,"x_max":1043,"o":"m 1043 232 l 1043 0 l 121 0 l 121 926 l 403 926 l 403 232 l 1043 232 z "},"M":{"ha":1811,"x_min":119,"x_max":1690,"o":"m 1423 0 l 1423 631 l 904 7 l 385 631 l 385 0 l 119 0 l 119 926 l 514 926 l 908 441 l 1326 926 l 1690 926 l 1690 0 l 1423 0 z "},"N":{"ha":1512,"x_min":119,"x_max":1392,"o":"m 943 0 l 385 696 l 385 0 l 119 0 l 119 926 l 568 926 l 1126 232 l 1126 926 l 1392 926 l 1392 0 l 943 0 z "},"O":{"ha":1474,"x_min":103,"x_max":1372,"o":"m 718 936 l 943 935 q 1281 853 1190 935 q 1372 525 1372 771 l 1372 481 q 1300 94 1372 192 q 935 -4 1227 -4 l 722 -8 l 633 -9 l 441 -3 q 193 70 281 -3 q 106 306 106 143 l 103 476 q 175 845 103 758 q 518 932 248 932 l 718 936 m 566 221 l 717 218 l 861 220 q 1033 245 981 220 q 1084 372 1084 271 l 1088 497 q 1080 606 1088 561 q 1048 673 1072 652 q 978 701 1025 694 q 879 708 932 708 l 599 707 q 453 687 503 707 q 395 605 403 668 q 387 500 387 542 l 387 475 l 387 437 q 417 266 387 310 q 566 221 447 221 z "},"P":{"ha":1321,"x_min":121,"x_max":1243,"o":"m 871 926 q 1162 858 1080 926 q 1243 585 1243 790 q 1180 310 1243 390 q 916 231 1117 231 l 843 231 l 403 231 l 403 0 l 121 0 l 121 926 l 871 926 m 958 575 q 925 677 958 653 q 808 701 892 701 l 403 701 l 403 456 l 812 456 q 926 478 893 456 q 958 575 958 501 z "},"Q":{"ha":1478,"x_min":103,"x_max":1478,"o":"m 1270 72 q 1128 11 1204 28 q 958 -5 1051 -5 l 749 -9 l 528 -9 q 315 6 400 -9 q 181 78 231 22 q 119 205 132 134 q 106 366 106 277 l 103 481 q 106 597 103 542 q 121 731 109 652 q 227 871 134 810 q 536 932 319 932 l 749 935 q 937 932 861 935 q 1119 920 1013 930 q 1294 842 1225 909 q 1364 637 1364 774 q 1369 545 1368 602 q 1371 482 1371 489 q 1369 354 1371 399 q 1358 249 1367 310 l 1478 183 l 1379 -3 l 1270 72 m 1086 498 q 1085 561 1086 534 q 1074 628 1083 587 q 1022 687 1065 669 q 917 705 979 705 l 750 708 q 621 707 671 708 q 502 698 571 705 q 410 646 432 690 q 387 515 387 602 l 387 440 q 421 259 387 302 q 602 216 456 216 l 913 222 q 997 233 953 222 l 697 399 l 814 583 l 1086 408 l 1086 498 z "},"R":{"ha":1404,"x_min":121,"x_max":1293,"o":"m 983 926 q 1222 862 1150 926 q 1293 633 1293 798 q 1286 527 1293 571 q 1258 449 1279 482 q 1210 400 1238 416 q 1093 355 1182 385 q 1236 306 1190 343 q 1282 178 1282 269 l 1282 0 l 996 0 l 996 89 q 984 197 996 157 q 873 237 972 237 l 403 237 l 403 0 l 121 0 l 121 926 l 983 926 m 865 463 q 985 486 961 463 q 1008 591 1008 510 q 999 660 1008 637 q 962 690 990 682 q 915 700 933 699 q 872 701 897 701 l 850 701 l 403 701 l 403 463 l 829 463 l 865 463 z "},"S":{"ha":1365,"x_min":102,"x_max":1264,"o":"m 387 281 q 426 209 387 224 q 532 195 464 195 l 665 193 l 854 199 q 956 218 932 199 q 979 279 979 237 q 952 339 979 317 q 848 361 925 361 l 803 361 l 339 371 q 155 437 208 371 q 102 639 102 503 q 136 818 102 754 q 259 905 170 882 q 494 932 349 928 q 689 936 639 936 l 886 933 q 1077 915 1004 933 q 1179 846 1149 896 q 1217 756 1208 796 q 1225 644 1225 715 l 949 644 q 920 712 949 693 q 840 732 892 732 l 704 733 l 489 726 q 416 710 446 726 q 386 657 386 694 q 421 590 386 606 q 518 574 457 574 l 547 574 l 736 571 l 922 570 q 1183 513 1101 570 q 1264 288 1264 457 q 1191 62 1264 123 q 950 1 1118 1 l 589 -8 l 400 -4 q 179 44 250 -4 q 109 240 109 93 l 109 296 l 386 296 l 387 281 z "},"T":{"ha":1182,"x_min":36,"x_max":1145,"o":"m 450 0 l 450 694 l 36 694 l 36 926 l 1145 926 l 1145 694 l 732 694 l 732 0 l 450 0 z "},"U":{"ha":1430,"x_min":119,"x_max":1310,"o":"m 1310 397 l 1310 343 q 1196 58 1310 126 q 847 -11 1083 -11 l 616 -9 q 336 10 433 -9 q 179 108 239 29 q 119 357 119 187 l 119 925 l 401 925 l 401 440 q 435 260 401 301 q 603 218 468 218 l 729 216 l 846 218 q 994 254 961 218 q 1026 400 1026 290 l 1026 435 l 1026 925 l 1310 925 l 1310 397 z "},"V":{"ha":1439,"x_min":36,"x_max":1401,"o":"m 525 0 l 36 926 l 345 926 l 708 228 l 1088 926 l 1401 926 l 885 0 l 525 0 z "},"W":{"ha":1811,"x_min":119,"x_max":1690,"o":"m 386 926 l 386 296 l 906 920 l 1425 296 l 1425 926 l 1690 926 l 1690 0 l 1296 0 l 901 485 l 484 0 l 119 0 l 119 926 l 386 926 z "},"X":{"ha":1467,"x_min":36,"x_max":1429,"o":"m 1429 0 l 1043 0 l 732 332 l 419 0 l 36 0 l 498 463 l 62 926 l 439 926 l 734 595 l 1032 926 l 1396 926 l 962 463 l 1429 0 z "},"Y":{"ha":1389,"x_min":28,"x_max":1361,"o":"m 1361 926 l 840 322 l 840 0 l 557 0 l 557 322 l 28 926 l 383 926 l 697 545 l 1008 926 l 1361 926 z "},"Z":{"ha":1284,"x_min":79,"x_max":1206,"o":"m 1206 210 l 1206 0 l 79 0 l 79 210 l 778 715 l 97 715 l 97 926 l 1192 926 l 1192 715 l 488 210 l 1206 210 z "},"[":{"ha":514,"x_min":0,"x_max":0,"o":""},"\\":{"ha":386,"x_min":0,"x_max":0,"o":""},"]":{"ha":514,"x_min":0,"x_max":0,"o":""},"^":{"ha":688,"x_min":0,"x_max":0,"o":""},"_":{"ha":694,"x_min":0,"x_max":0,"o":""},"`":{"ha":694,"x_min":0,"x_max":0,"o":""},"a":{"ha":1496,"x_min":47,"x_max":1450,"o":"m 361 0 l 47 0 l 564 926 l 945 926 l 1450 0 l 1139 0 l 1051 168 l 453 168 l 361 0 m 551 359 l 949 359 l 750 726 l 551 359 z "},"b":{"ha":1423,"x_min":121,"x_max":1322,"o":"m 1000 926 q 1212 873 1139 926 q 1286 688 1286 821 q 1276 588 1286 629 q 1238 524 1265 547 q 1188 492 1211 500 q 1124 472 1165 484 q 1279 415 1236 454 q 1322 267 1322 376 q 1248 56 1322 113 q 1014 0 1174 0 l 121 0 l 121 926 l 1000 926 m 1002 646 q 975 708 1002 693 q 895 724 947 724 l 403 724 l 403 562 l 889 562 q 973 577 945 562 q 1002 646 1002 593 m 1039 300 q 1015 358 1039 338 q 920 379 990 379 l 403 379 l 403 210 l 916 210 q 1001 220 964 210 q 1039 300 1039 231 z "},"c":{"ha":1388,"x_min":104,"x_max":1289,"o":"m 1289 313 q 1219 58 1289 121 q 942 -5 1149 -5 l 726 -9 l 551 -7 q 192 66 272 -7 q 113 293 113 139 l 104 488 q 171 822 104 715 q 443 928 237 928 l 707 935 q 897 932 822 935 q 1079 919 972 930 q 1232 826 1186 908 q 1278 600 1278 743 l 1004 600 q 973 685 1004 664 q 873 707 942 707 l 794 708 l 717 708 l 574 707 q 417 660 446 707 q 389 464 389 612 q 422 266 389 311 q 600 220 456 220 l 710 216 l 854 218 q 975 242 939 218 q 1011 353 1011 265 l 1287 353 l 1289 313 z "},"d":{"ha":1463,"x_min":121,"x_max":1361,"o":"m 937 926 q 1275 843 1189 926 q 1361 510 1361 760 l 1361 457 l 1361 428 l 1361 403 q 1359 311 1361 338 q 1343 203 1357 285 q 1247 61 1329 122 q 1042 0 1165 0 l 121 0 l 121 926 l 937 926 m 1076 460 l 1076 468 q 1046 651 1076 604 q 882 699 1015 699 l 403 699 l 403 227 l 878 227 q 1042 275 1008 227 q 1076 460 1076 323 z "},"e":{"ha":1242,"x_min":121,"x_max":1154,"o":"m 1154 926 l 1154 715 l 403 715 l 403 557 l 1104 557 l 1104 374 l 403 374 l 403 210 l 1154 210 l 1154 0 l 121 0 l 121 926 l 1154 926 z "},"f":{"ha":1017,"x_min":121,"x_max":1104,"o":"m 1104 926 l 1104 715 l 403 715 l 403 557 l 1104 557 l 1020 374 l 403 374 l 403 0 l 121 0 l 121 926 l 1104 926 z "},"g":{"ha":1413,"x_min":103,"x_max":1312,"o":"m 1311 522 l 1312 328 q 1253 74 1312 157 q 1023 -8 1194 -8 l 876 -9 l 708 -8 l 562 -7 q 309 15 403 -7 q 160 110 215 36 q 106 335 106 183 l 103 452 q 170 826 103 722 q 484 930 236 930 l 694 935 l 772 936 l 961 932 q 1227 869 1145 932 q 1310 625 1310 806 l 1310 608 l 1034 608 q 1024 665 1034 642 q 987 699 1014 689 q 937 710 961 708 q 867 713 913 713 l 541 714 q 414 665 440 714 q 387 501 387 616 l 387 415 q 414 273 387 319 q 489 220 440 227 q 564 212 538 214 q 631 211 590 211 l 882 210 q 994 233 953 210 q 1035 322 1035 257 l 1034 349 l 676 349 l 676 522 l 1311 522 z "},"h":{"ha":1444,"x_min":119,"x_max":1324,"o":"m 1324 926 l 1324 0 l 1040 0 l 1040 357 l 401 357 l 401 0 l 119 0 l 119 926 l 401 926 l 401 587 l 1040 587 l 1040 926 l 1324 926 z "},"i":{"ha":524,"x_min":121,"x_max":403,"o":"m 121 0 l 121 926 l 403 926 l 403 0 l 121 0 z "},"j":{"ha":1121,"x_min":46,"x_max":1000,"o":"m 1000 378 q 959 121 1000 208 q 818 16 918 35 q 643 -5 717 -3 q 503 -8 570 -8 q 231 9 319 -8 q 95 102 143 26 q 46 350 46 178 l 47 396 l 318 396 l 317 335 q 360 240 317 261 q 488 218 404 218 l 562 218 q 674 236 631 218 q 717 307 717 253 l 718 378 l 718 926 l 1000 926 l 1000 378 z "},"k":{"ha":1413,"x_min":121,"x_max":1377,"o":"m 547 578 l 929 926 l 1318 926 l 787 468 l 1377 0 l 962 0 l 547 353 l 403 353 l 403 0 l 121 0 l 121 926 l 403 926 l 403 578 l 547 578 z "},"l":{"ha":1079,"x_min":121,"x_max":1043,"o":"m 1043 232 l 1043 0 l 121 0 l 121 926 l 403 926 l 403 232 l 1043 232 z "},"m":{"ha":1811,"x_min":119,"x_max":1690,"o":"m 1423 0 l 1423 631 l 904 7 l 385 631 l 385 0 l 119 0 l 119 926 l 480 926 l 908 441 l 1326 926 l 1690 926 l 1690 0 l 1423 0 z "},"n":{"ha":1512,"x_min":119,"x_max":1392,"o":"m 943 0 l 385 696 l 385 0 l 119 0 l 119 926 l 568 926 l 1126 232 l 1126 926 l 1392 926 l 1392 0 l 943 0 z "},"o":{"ha":1474,"x_min":103,"x_max":1372,"o":"m 718 936 l 943 935 q 1281 853 1190 935 q 1372 525 1372 771 l 1372 481 q 1300 94 1372 192 q 935 -4 1227 -4 l 722 -8 l 633 -9 l 441 -3 q 193 70 281 -3 q 106 306 106 143 l 103 476 q 175 845 103 758 q 518 932 248 932 l 718 936 m 566 221 l 717 218 l 861 220 q 1033 245 981 220 q 1084 372 1084 271 l 1088 497 q 1080 606 1088 561 q 1048 673 1072 652 q 978 701 1025 694 q 879 708 932 708 l 599 707 q 453 687 503 707 q 395 605 403 668 q 387 500 387 542 l 387 475 l 387 437 q 417 266 387 310 q 566 221 447 221 z "},"p":{"ha":1321,"x_min":121,"x_max":1243,"o":"m 871 926 q 1162 858 1080 926 q 1243 585 1243 790 q 1180 310 1243 390 q 916 231 1117 231 l 843 231 l 403 231 l 403 0 l 121 0 l 121 926 l 871 926 m 958 575 q 925 677 958 653 q 808 701 892 701 l 403 701 l 403 456 l 812 456 q 926 478 893 456 q 958 575 958 501 z "},"q":{"ha":1478,"x_min":103,"x_max":1478,"o":"m 1270 72 q 1128 11 1204 28 q 958 -5 1051 -5 l 749 -9 l 528 -9 q 315 6 400 -9 q 181 78 231 22 q 119 205 132 134 q 106 366 106 277 l 103 481 q 106 597 103 542 q 121 731 109 652 q 227 871 134 810 q 536 932 319 932 l 749 935 q 937 932 861 935 q 1119 920 1013 930 q 1294 842 1225 909 q 1364 637 1364 774 q 1369 545 1368 602 q 1371 482 1371 489 q 1369 354 1371 399 q 1358 249 1367 310 l 1478 183 l 1379 -3 l 1270 72 m 1086 498 q 1085 561 1086 534 q 1074 628 1083 587 q 1022 687 1065 669 q 917 705 979 705 l 750 708 q 621 707 671 708 q 502 698 571 705 q 410 646 432 690 q 387 515 387 602 l 387 440 q 421 259 387 302 q 602 216 456 216 l 913 222 q 997 233 953 222 l 697 399 l 814 583 l 1086 408 l 1086 498 z "},"r":{"ha":1404,"x_min":121,"x_max":1293,"o":"m 983 926 q 1222 862 1150 926 q 1293 633 1293 798 q 1286 527 1293 571 q 1258 449 1279 482 q 1210 400 1238 416 q 1093 355 1182 385 q 1236 306 1190 343 q 1282 178 1282 269 l 1282 0 l 996 0 l 996 89 q 984 197 996 157 q 873 237 972 237 l 403 237 l 403 0 l 121 0 l 121 926 l 983 926 m 865 463 q 985 486 961 463 q 1008 591 1008 510 q 999 660 1008 637 q 962 690 990 682 q 915 700 933 699 q 872 701 897 701 l 850 701 l 403 701 l 403 463 l 829 463 l 865 463 z "},"s":{"ha":1365,"x_min":102,"x_max":1264,"o":"m 387 281 q 426 209 387 224 q 532 195 464 195 l 665 193 l 854 199 q 956 218 932 199 q 979 279 979 237 q 952 339 979 317 q 848 361 925 361 l 803 361 l 339 371 q 155 437 208 371 q 102 639 102 503 q 136 818 102 754 q 259 905 170 882 q 494 932 349 928 q 689 936 639 936 l 886 933 q 1077 915 1004 933 q 1179 846 1149 896 q 1217 756 1208 796 q 1225 644 1225 715 l 949 644 q 920 712 949 693 q 840 732 892 732 l 704 733 l 489 726 q 416 710 446 726 q 386 657 386 694 q 421 590 386 606 q 518 574 457 574 l 547 574 l 736 571 l 922 570 q 1183 513 1101 570 q 1264 288 1264 457 q 1191 62 1264 123 q 950 1 1118 1 l 589 -8 l 400 -4 q 179 44 250 -4 q 109 240 109 93 l 109 296 l 386 296 l 387 281 z "},"t":{"ha":1182,"x_min":36,"x_max":1145,"o":"m 450 0 l 450 694 l 36 694 l 36 926 l 1145 926 l 1145 694 l 732 694 l 732 0 l 450 0 z "},"u":{"ha":1430,"x_min":119,"x_max":1310,"o":"m 1310 397 l 1310 343 q 1196 58 1310 126 q 847 -11 1083 -11 l 616 -9 q 336 10 433 -9 q 179 108 239 29 q 119 357 119 187 l 119 925 l 401 925 l 401 440 q 435 260 401 301 q 603 218 468 218 l 729 216 l 846 218 q 994 254 961 218 q 1026 400 1026 290 l 1026 435 l 1026 925 l 1310 925 l 1310 397 z "},"v":{"ha":1439,"x_min":36,"x_max":1401,"o":"m 525 0 l 36 926 l 345 926 l 708 228 l 1088 926 l 1401 926 l 885 0 l 525 0 z "},"w":{"ha":1811,"x_min":119,"x_max":1690,"o":"m 386 926 l 386 296 l 906 920 l 1425 296 l 1425 926 l 1690 926 l 1690 0 l 1296 0 l 901 485 l 484 0 l 119 0 l 119 926 l 386 926 z "},"x":{"ha":1467,"x_min":36,"x_max":1429,"o":"m 1429 0 l 1043 0 l 732 332 l 419 0 l 36 0 l 498 463 l 62 926 l 439 926 l 734 595 l 1032 926 l 1396 926 l 962 463 l 1429 0 z "},"y":{"ha":1389,"x_min":28,"x_max":1361,"o":"m 1361 926 l 840 322 l 840 0 l 557 0 l 557 322 l 28 926 l 383 926 l 697 545 l 1008 926 l 1361 926 z "},"z":{"ha":1284,"x_min":79,"x_max":1206,"o":"m 1206 210 l 1206 0 l 79 0 l 79 210 l 778 715 l 97 715 l 97 926 l 1192 926 l 1192 715 l 488 210 l 1206 210 z "},"{":{"ha":688,"x_min":0,"x_max":0,"o":""},"|":{"ha":688,"x_min":0,"x_max":0,"o":""},"}":{"ha":688,"x_min":0,"x_max":0,"o":""},"~":{"ha":688,"x_min":0,"x_max":0,"o":""},"¡":{"ha":456,"x_min":0,"x_max":0,"o":""},"¢":{"ha":772,"x_min":0,"x_max":0,"o":""},"£":{"ha":688,"x_min":0,"x_max":0,"o":""},"¤":{"ha":688,"x_min":0,"x_max":0,"o":""},"¥":{"ha":688,"x_min":0,"x_max":0,"o":""},"¦":{"ha":688,"x_min":0,"x_max":0,"o":""},"§":{"ha":688,"x_min":0,"x_max":0,"o":""},"¨":{"ha":694,"x_min":0,"x_max":0,"o":""},"©":{"ha":1135,"x_min":0,"x_max":0,"o":""},"ª":{"ha":439,"x_min":0,"x_max":0,"o":""},"«":{"ha":640,"x_min":0,"x_max":0,"o":""},"¬":{"ha":688,"x_min":0,"x_max":0,"o":""},"®":{"ha":1135,"x_min":0,"x_max":0,"o":""},"¯":{"ha":694,"x_min":0,"x_max":0,"o":""},"°":{"ha":457,"x_min":0,"x_max":0,"o":""},"±":{"ha":688,"x_min":0,"x_max":0,"o":""},"²":{"ha":688,"x_min":0,"x_max":0,"o":""},"³":{"ha":688,"x_min":0,"x_max":0,"o":""},"´":{"ha":694,"x_min":0,"x_max":0,"o":""},"µ":{"ha":800,"x_min":0,"x_max":0,"o":""},"¶":{"ha":694,"x_min":0,"x_max":0,"o":""},"·":{"ha":345,"x_min":0,"x_max":0,"o":""},"∙":{"ha":345,"x_min":0,"x_max":0,"o":""},"¸":{"ha":694,"x_min":0,"x_max":0,"o":""},"¹":{"ha":688,"x_min":0,"x_max":0,"o":""},"º":{"ha":1032,"x_min":0,"x_max":0,"o":""},"»":{"ha":640,"x_min":0,"x_max":0,"o":""},"¼":{"ha":1158,"x_min":0,"x_max":0,"o":""},"½":{"ha":1607,"x_min":0,"x_max":0,"o":""},"¾":{"ha":1158,"x_min":0,"x_max":0,"o":""},"¿":{"ha":507,"x_min":0,"x_max":0,"o":""},"À":{"ha":1044,"x_min":0,"x_max":0,"o":""},"Á":{"ha":1044,"x_min":0,"x_max":0,"o":""},"Â":{"ha":1044,"x_min":0,"x_max":0,"o":""},"Ã":{"ha":1044,"x_min":0,"x_max":0,"o":""},"Ä":{"ha":1044,"x_min":0,"x_max":0,"o":""},"Å":{"ha":1044,"x_min":0,"x_max":0,"o":""},"Æ":{"ha":1417,"x_min":0,"x_max":0,"o":""},"Ç":{"ha":949,"x_min":0,"x_max":0,"o":""},"È":{"ha":781,"x_min":0,"x_max":0,"o":""},"É":{"ha":781,"x_min":0,"x_max":0,"o":""},"Ê":{"ha":781,"x_min":0,"x_max":0,"o":""},"Ë":{"ha":781,"x_min":0,"x_max":0,"o":""},"Ì":{"ha":446,"x_min":0,"x_max":0,"o":""},"Í":{"ha":446,"x_min":0,"x_max":0,"o":""},"Î":{"ha":446,"x_min":0,"x_max":0,"o":""},"Ï":{"ha":446,"x_min":0,"x_max":0,"o":""},"Ð":{"ha":1029,"x_min":0,"x_max":0,"o":""},"Ñ":{"ha":1054,"x_min":0,"x_max":0,"o":""},"Ò":{"ha":1095,"x_min":0,"x_max":0,"o":""},"Ó":{"ha":1095,"x_min":0,"x_max":0,"o":""},"Ô":{"ha":1095,"x_min":0,"x_max":0,"o":""},"Õ":{"ha":1095,"x_min":0,"x_max":0,"o":""},"Ö":{"ha":1095,"x_min":0,"x_max":0,"o":""},"×":{"ha":688,"x_min":0,"x_max":0,"o":""},"Ø":{"ha":1095,"x_min":0,"x_max":0,"o":""},"Ù":{"ha":1018,"x_min":0,"x_max":0,"o":""},"Ú":{"ha":1018,"x_min":0,"x_max":0,"o":""},"Û":{"ha":1018,"x_min":0,"x_max":0,"o":""},"Ü":{"ha":1018,"x_min":0,"x_max":0,"o":""},"Ý":{"ha":836,"x_min":0,"x_max":0,"o":""},"Þ":{"ha":760,"x_min":0,"x_max":0,"o":""},"ß":{"ha":848,"x_min":0,"x_max":0,"o":""},"à":{"ha":625,"x_min":0,"x_max":0,"o":""},"á":{"ha":625,"x_min":0,"x_max":0,"o":""},"â":{"ha":625,"x_min":0,"x_max":0,"o":""},"ã":{"ha":625,"x_min":0,"x_max":0,"o":""},"ä":{"ha":625,"x_min":0,"x_max":0,"o":""},"å":{"ha":625,"x_min":0,"x_max":0,"o":""},"æ":{"ha":984,"x_min":0,"x_max":0,"o":""},"ç":{"ha":614,"x_min":0,"x_max":0,"o":""},"è":{"ha":616,"x_min":0,"x_max":0,"o":""},"é":{"ha":616,"x_min":0,"x_max":0,"o":""},"ê":{"ha":616,"x_min":0,"x_max":0,"o":""},"ë":{"ha":616,"x_min":0,"x_max":0,"o":""},"ì":{"ha":349,"x_min":0,"x_max":0,"o":""},"í":{"ha":349,"x_min":0,"x_max":0,"o":""},"î":{"ha":349,"x_min":0,"x_max":0,"o":""},"ï":{"ha":349,"x_min":0,"x_max":0,"o":""},"ð":{"ha":772,"x_min":0,"x_max":0,"o":""},"ñ":{"ha":751,"x_min":0,"x_max":0,"o":""},"ò":{"ha":685,"x_min":0,"x_max":0,"o":""},"ó":{"ha":685,"x_min":0,"x_max":0,"o":""},"ô":{"ha":685,"x_min":0,"x_max":0,"o":""},"õ":{"ha":685,"x_min":0,"x_max":0,"o":""},"ö":{"ha":685,"x_min":0,"x_max":0,"o":""},"÷":{"ha":688,"x_min":0,"x_max":0,"o":""},"ø":{"ha":685,"x_min":0,"x_max":0,"o":""},"ù":{"ha":718,"x_min":0,"x_max":0,"o":""},"ú":{"ha":718,"x_min":0,"x_max":0,"o":""},"û":{"ha":718,"x_min":0,"x_max":0,"o":""},"ü":{"ha":718,"x_min":0,"x_max":0,"o":""},"ý":{"ha":589,"x_min":0,"x_max":0,"o":""},"þ":{"ha":685,"x_min":0,"x_max":0,"o":""},"ÿ":{"ha":589,"x_min":0,"x_max":0,"o":""},"ı":{"ha":349,"x_min":0,"x_max":0,"o":""},"̀":{"ha":0,"x_min":0,"x_max":0,"o":""},"́":{"ha":0,"x_min":0,"x_max":0,"o":""},"̂":{"ha":0,"x_min":0,"x_max":0,"o":""},"̃":{"ha":0,"x_min":0,"x_max":0,"o":""},"̄":{"ha":0,"x_min":0,"x_max":0,"o":""},"̇":{"ha":0,"x_min":0,"x_max":0,"o":""},"̈":{"ha":0,"x_min":0,"x_max":0,"o":""},"̊":{"ha":0,"x_min":0,"x_max":0,"o":""},"̌":{"ha":0,"x_min":0,"x_max":0,"o":""},"̧":{"ha":0,"x_min":0,"x_max":0,"o":""},"–":{"ha":751,"x_min":0,"x_max":0,"o":""},"—":{"ha":1389,"x_min":0,"x_max":0,"o":""},"‘":{"ha":378,"x_min":0,"x_max":0,"o":""},"’":{"ha":378,"x_min":0,"x_max":0,"o":""},"‚":{"ha":378,"x_min":0,"x_max":0,"o":""},"“":{"ha":617,"x_min":0,"x_max":0,"o":""},"”":{"ha":617,"x_min":0,"x_max":0,"o":""},"„":{"ha":617,"x_min":0,"x_max":0,"o":""},"†":{"ha":688,"x_min":0,"x_max":0,"o":""},"‡":{"ha":688,"x_min":0,"x_max":0,"o":""},"•":{"ha":694,"x_min":0,"x_max":0,"o":""},"…":{"ha":1389,"x_min":0,"x_max":0,"o":""},"‹":{"ha":428,"x_min":0,"x_max":0,"o":""},"›":{"ha":428,"x_min":0,"x_max":0,"o":""},"⁄":{"ha":232,"x_min":0,"x_max":0,"o":""},"∕":{"ha":232,"x_min":0,"x_max":0,"o":""},"₣":{"ha":688,"x_min":0,"x_max":0,"o":""},"₤":{"ha":688,"x_min":0,"x_max":0,"o":""},"₧":{"ha":1375,"x_min":0,"x_max":0,"o":""},"€":{"ha":688,"x_min":0,"x_max":0,"o":""},"№":{"ha":1540,"x_min":0,"x_max":0,"o":""},"™":{"ha":1015,"x_min":0,"x_max":0,"o":""},"∂":{"ha":688,"x_min":0,"x_max":0,"o":""},"∆":{"ha":733,"x_min":0,"x_max":0,"o":""},"∏":{"ha":1027,"x_min":0,"x_max":0,"o":""},"∑":{"ha":818,"x_min":0,"x_max":0,"o":""},"−":{"ha":688,"x_min":0,"x_max":0,"o":""},"√":{"ha":688,"x_min":0,"x_max":0,"o":""},"∞":{"ha":688,"x_min":0,"x_max":0,"o":""},"∫":{"ha":451,"x_min":0,"x_max":0,"o":""},"≈":{"ha":688,"x_min":0,"x_max":0,"o":""},"≤":{"ha":688,"x_min":0,"x_max":0,"o":""},"≥":{"ha":688,"x_min":0,"x_max":0,"o":""},"ﬁ":{"ha":728,"x_min":0,"x_max":0,"o":""},"ﬂ":{"ha":733,"x_min":0,"x_max":0,"o":""}}}
